<?xml version="1.0" encoding="utf-8"?>
<svg xmlns="http://www.w3.org/2000/svg" xmlns:xlink="http://www.w3.org/1999/xlink" width="800" height="600" viewBox="0 0 3200 2400">
<defs>
  <clipPath id="clip9400">
    <rect x="0" y="0" width="2000" height="2000"/>
  </clipPath>
</defs>
<defs>
  <clipPath id="clip9401">
    <rect x="0" y="0" width="3200" height="2400"/>
  </clipPath>
</defs>
<polygon clip-path="url(#clip9401)" points="
0,2400 3200,2400 3200,0 0,0 
  " fill="#ffffff" fill-rule="evenodd" fill-opacity="1"/>
<defs>
  <clipPath id="clip9402">
    <rect x="640" y="0" width="2241" height="2241"/>
  </clipPath>
</defs>
<polygon clip-path="url(#clip9401)" points="
251.149,2236.29 3121.26,2236.29 3121.26,47.2441 251.149,47.2441 
  " fill="#ffffff" fill-rule="evenodd" fill-opacity="1"/>
<defs>
  <clipPath id="clip9403">
    <rect x="251" y="47" width="2871" height="2190"/>
  </clipPath>
</defs>
<polyline clip-path="url(#clip9403)" style="stroke:#000000; stroke-width:2; stroke-opacity:0.1; fill:none" points="
  251.149,2236.29 251.149,47.2441 
  "/>
<polyline clip-path="url(#clip9403)" style="stroke:#000000; stroke-width:2; stroke-opacity:0.1; fill:none" points="
  442.489,2236.29 442.489,47.2441 
  "/>
<polyline clip-path="url(#clip9403)" style="stroke:#000000; stroke-width:2; stroke-opacity:0.1; fill:none" points="
  633.83,2236.29 633.83,47.2441 
  "/>
<polyline clip-path="url(#clip9403)" style="stroke:#000000; stroke-width:2; stroke-opacity:0.1; fill:none" points="
  825.171,2236.29 825.171,47.2441 
  "/>
<polyline clip-path="url(#clip9403)" style="stroke:#000000; stroke-width:2; stroke-opacity:0.1; fill:none" points="
  1016.51,2236.29 1016.51,47.2441 
  "/>
<polyline clip-path="url(#clip9403)" style="stroke:#000000; stroke-width:2; stroke-opacity:0.1; fill:none" points="
  1207.85,2236.29 1207.85,47.2441 
  "/>
<polyline clip-path="url(#clip9403)" style="stroke:#000000; stroke-width:2; stroke-opacity:0.1; fill:none" points="
  1399.19,2236.29 1399.19,47.2441 
  "/>
<polyline clip-path="url(#clip9403)" style="stroke:#000000; stroke-width:2; stroke-opacity:0.1; fill:none" points="
  1590.53,2236.29 1590.53,47.2441 
  "/>
<polyline clip-path="url(#clip9403)" style="stroke:#000000; stroke-width:2; stroke-opacity:0.1; fill:none" points="
  1781.87,2236.29 1781.87,47.2441 
  "/>
<polyline clip-path="url(#clip9403)" style="stroke:#000000; stroke-width:2; stroke-opacity:0.1; fill:none" points="
  1973.22,2236.29 1973.22,47.2441 
  "/>
<polyline clip-path="url(#clip9403)" style="stroke:#000000; stroke-width:2; stroke-opacity:0.1; fill:none" points="
  2164.56,2236.29 2164.56,47.2441 
  "/>
<polyline clip-path="url(#clip9403)" style="stroke:#000000; stroke-width:2; stroke-opacity:0.1; fill:none" points="
  2355.9,2236.29 2355.9,47.2441 
  "/>
<polyline clip-path="url(#clip9403)" style="stroke:#000000; stroke-width:2; stroke-opacity:0.1; fill:none" points="
  2547.24,2236.29 2547.24,47.2441 
  "/>
<polyline clip-path="url(#clip9403)" style="stroke:#000000; stroke-width:2; stroke-opacity:0.1; fill:none" points="
  2738.58,2236.29 2738.58,47.2441 
  "/>
<polyline clip-path="url(#clip9403)" style="stroke:#000000; stroke-width:2; stroke-opacity:0.1; fill:none" points="
  2929.92,2236.29 2929.92,47.2441 
  "/>
<polyline clip-path="url(#clip9403)" style="stroke:#000000; stroke-width:2; stroke-opacity:0.1; fill:none" points="
  3121.26,2236.29 3121.26,47.2441 
  "/>
<polyline clip-path="url(#clip9403)" style="stroke:#000000; stroke-width:2; stroke-opacity:0.1; fill:none" points="
  251.149,2174.63 3121.26,2174.63 
  "/>
<polyline clip-path="url(#clip9403)" style="stroke:#000000; stroke-width:2; stroke-opacity:0.1; fill:none" points="
  251.149,1682.79 3121.26,1682.79 
  "/>
<polyline clip-path="url(#clip9403)" style="stroke:#000000; stroke-width:2; stroke-opacity:0.1; fill:none" points="
  251.149,1190.95 3121.26,1190.95 
  "/>
<polyline clip-path="url(#clip9403)" style="stroke:#000000; stroke-width:2; stroke-opacity:0.1; fill:none" points="
  251.149,699.108 3121.26,699.108 
  "/>
<polyline clip-path="url(#clip9403)" style="stroke:#000000; stroke-width:2; stroke-opacity:0.1; fill:none" points="
  251.149,207.267 3121.26,207.267 
  "/>
<polyline clip-path="url(#clip9401)" style="stroke:#000000; stroke-width:4; stroke-opacity:1; fill:none" points="
  251.149,2236.29 3121.26,2236.29 
  "/>
<polyline clip-path="url(#clip9401)" style="stroke:#000000; stroke-width:4; stroke-opacity:1; fill:none" points="
  251.149,2236.29 251.149,47.2441 
  "/>
<polyline clip-path="url(#clip9401)" style="stroke:#000000; stroke-width:4; stroke-opacity:1; fill:none" points="
  251.149,2236.29 251.149,2203.46 
  "/>
<polyline clip-path="url(#clip9401)" style="stroke:#000000; stroke-width:4; stroke-opacity:1; fill:none" points="
  442.489,2236.29 442.489,2203.46 
  "/>
<polyline clip-path="url(#clip9401)" style="stroke:#000000; stroke-width:4; stroke-opacity:1; fill:none" points="
  633.83,2236.29 633.83,2203.46 
  "/>
<polyline clip-path="url(#clip9401)" style="stroke:#000000; stroke-width:4; stroke-opacity:1; fill:none" points="
  825.171,2236.29 825.171,2203.46 
  "/>
<polyline clip-path="url(#clip9401)" style="stroke:#000000; stroke-width:4; stroke-opacity:1; fill:none" points="
  1016.51,2236.29 1016.51,2203.46 
  "/>
<polyline clip-path="url(#clip9401)" style="stroke:#000000; stroke-width:4; stroke-opacity:1; fill:none" points="
  1207.85,2236.29 1207.85,2203.46 
  "/>
<polyline clip-path="url(#clip9401)" style="stroke:#000000; stroke-width:4; stroke-opacity:1; fill:none" points="
  1399.19,2236.29 1399.19,2203.46 
  "/>
<polyline clip-path="url(#clip9401)" style="stroke:#000000; stroke-width:4; stroke-opacity:1; fill:none" points="
  1590.53,2236.29 1590.53,2203.46 
  "/>
<polyline clip-path="url(#clip9401)" style="stroke:#000000; stroke-width:4; stroke-opacity:1; fill:none" points="
  1781.87,2236.29 1781.87,2203.46 
  "/>
<polyline clip-path="url(#clip9401)" style="stroke:#000000; stroke-width:4; stroke-opacity:1; fill:none" points="
  1973.22,2236.29 1973.22,2203.46 
  "/>
<polyline clip-path="url(#clip9401)" style="stroke:#000000; stroke-width:4; stroke-opacity:1; fill:none" points="
  2164.56,2236.29 2164.56,2203.46 
  "/>
<polyline clip-path="url(#clip9401)" style="stroke:#000000; stroke-width:4; stroke-opacity:1; fill:none" points="
  2355.9,2236.29 2355.9,2203.46 
  "/>
<polyline clip-path="url(#clip9401)" style="stroke:#000000; stroke-width:4; stroke-opacity:1; fill:none" points="
  2547.24,2236.29 2547.24,2203.46 
  "/>
<polyline clip-path="url(#clip9401)" style="stroke:#000000; stroke-width:4; stroke-opacity:1; fill:none" points="
  2738.58,2236.29 2738.58,2203.46 
  "/>
<polyline clip-path="url(#clip9401)" style="stroke:#000000; stroke-width:4; stroke-opacity:1; fill:none" points="
  2929.92,2236.29 2929.92,2203.46 
  "/>
<polyline clip-path="url(#clip9401)" style="stroke:#000000; stroke-width:4; stroke-opacity:1; fill:none" points="
  3121.26,2236.29 3121.26,2203.46 
  "/>
<polyline clip-path="url(#clip9401)" style="stroke:#000000; stroke-width:4; stroke-opacity:1; fill:none" points="
  251.149,2174.63 294.2,2174.63 
  "/>
<polyline clip-path="url(#clip9401)" style="stroke:#000000; stroke-width:4; stroke-opacity:1; fill:none" points="
  251.149,1682.79 294.2,1682.79 
  "/>
<polyline clip-path="url(#clip9401)" style="stroke:#000000; stroke-width:4; stroke-opacity:1; fill:none" points="
  251.149,1190.95 294.2,1190.95 
  "/>
<polyline clip-path="url(#clip9401)" style="stroke:#000000; stroke-width:4; stroke-opacity:1; fill:none" points="
  251.149,699.108 294.2,699.108 
  "/>
<polyline clip-path="url(#clip9401)" style="stroke:#000000; stroke-width:4; stroke-opacity:1; fill:none" points="
  251.149,207.267 294.2,207.267 
  "/>
<g clip-path="url(#clip9401)">
<text style="fill:#000000; fill-opacity:1; font-family:Arial,Helvetica Neue,Helvetica,sans-serif; font-size:48px; text-anchor:middle;" transform="rotate(0, 251.149, 2294.29)" x="251.149" y="2294.29">0</text>
</g>
<g clip-path="url(#clip9401)">
<text style="fill:#000000; fill-opacity:1; font-family:Arial,Helvetica Neue,Helvetica,sans-serif; font-size:48px; text-anchor:middle;" transform="rotate(0, 442.489, 2294.29)" x="442.489" y="2294.29">1</text>
</g>
<g clip-path="url(#clip9401)">
<text style="fill:#000000; fill-opacity:1; font-family:Arial,Helvetica Neue,Helvetica,sans-serif; font-size:48px; text-anchor:middle;" transform="rotate(0, 633.83, 2294.29)" x="633.83" y="2294.29">2</text>
</g>
<g clip-path="url(#clip9401)">
<text style="fill:#000000; fill-opacity:1; font-family:Arial,Helvetica Neue,Helvetica,sans-serif; font-size:48px; text-anchor:middle;" transform="rotate(0, 825.171, 2294.29)" x="825.171" y="2294.29">3</text>
</g>
<g clip-path="url(#clip9401)">
<text style="fill:#000000; fill-opacity:1; font-family:Arial,Helvetica Neue,Helvetica,sans-serif; font-size:48px; text-anchor:middle;" transform="rotate(0, 1016.51, 2294.29)" x="1016.51" y="2294.29">4</text>
</g>
<g clip-path="url(#clip9401)">
<text style="fill:#000000; fill-opacity:1; font-family:Arial,Helvetica Neue,Helvetica,sans-serif; font-size:48px; text-anchor:middle;" transform="rotate(0, 1207.85, 2294.29)" x="1207.85" y="2294.29">5</text>
</g>
<g clip-path="url(#clip9401)">
<text style="fill:#000000; fill-opacity:1; font-family:Arial,Helvetica Neue,Helvetica,sans-serif; font-size:48px; text-anchor:middle;" transform="rotate(0, 1399.19, 2294.29)" x="1399.19" y="2294.29">6</text>
</g>
<g clip-path="url(#clip9401)">
<text style="fill:#000000; fill-opacity:1; font-family:Arial,Helvetica Neue,Helvetica,sans-serif; font-size:48px; text-anchor:middle;" transform="rotate(0, 1590.53, 2294.29)" x="1590.53" y="2294.29">7</text>
</g>
<g clip-path="url(#clip9401)">
<text style="fill:#000000; fill-opacity:1; font-family:Arial,Helvetica Neue,Helvetica,sans-serif; font-size:48px; text-anchor:middle;" transform="rotate(0, 1781.87, 2294.29)" x="1781.87" y="2294.29">8</text>
</g>
<g clip-path="url(#clip9401)">
<text style="fill:#000000; fill-opacity:1; font-family:Arial,Helvetica Neue,Helvetica,sans-serif; font-size:48px; text-anchor:middle;" transform="rotate(0, 1973.22, 2294.29)" x="1973.22" y="2294.29">9</text>
</g>
<g clip-path="url(#clip9401)">
<text style="fill:#000000; fill-opacity:1; font-family:Arial,Helvetica Neue,Helvetica,sans-serif; font-size:48px; text-anchor:middle;" transform="rotate(0, 2164.56, 2294.29)" x="2164.56" y="2294.29">10</text>
</g>
<g clip-path="url(#clip9401)">
<text style="fill:#000000; fill-opacity:1; font-family:Arial,Helvetica Neue,Helvetica,sans-serif; font-size:48px; text-anchor:middle;" transform="rotate(0, 2355.9, 2294.29)" x="2355.9" y="2294.29">11</text>
</g>
<g clip-path="url(#clip9401)">
<text style="fill:#000000; fill-opacity:1; font-family:Arial,Helvetica Neue,Helvetica,sans-serif; font-size:48px; text-anchor:middle;" transform="rotate(0, 2547.24, 2294.29)" x="2547.24" y="2294.29">12</text>
</g>
<g clip-path="url(#clip9401)">
<text style="fill:#000000; fill-opacity:1; font-family:Arial,Helvetica Neue,Helvetica,sans-serif; font-size:48px; text-anchor:middle;" transform="rotate(0, 2738.58, 2294.29)" x="2738.58" y="2294.29">13</text>
</g>
<g clip-path="url(#clip9401)">
<text style="fill:#000000; fill-opacity:1; font-family:Arial,Helvetica Neue,Helvetica,sans-serif; font-size:48px; text-anchor:middle;" transform="rotate(0, 2929.92, 2294.29)" x="2929.92" y="2294.29">14</text>
</g>
<g clip-path="url(#clip9401)">
<text style="fill:#000000; fill-opacity:1; font-family:Arial,Helvetica Neue,Helvetica,sans-serif; font-size:48px; text-anchor:middle;" transform="rotate(0, 3121.26, 2294.29)" x="3121.26" y="2294.29">15</text>
</g>
<g clip-path="url(#clip9401)">
<text style="fill:#000000; fill-opacity:1; font-family:Arial,Helvetica Neue,Helvetica,sans-serif; font-size:48px; text-anchor:end;" transform="rotate(0, 219.149, 2192.13)" x="219.149" y="2192.13">0.00</text>
</g>
<g clip-path="url(#clip9401)">
<text style="fill:#000000; fill-opacity:1; font-family:Arial,Helvetica Neue,Helvetica,sans-serif; font-size:48px; text-anchor:end;" transform="rotate(0, 219.149, 1700.29)" x="219.149" y="1700.29">0.05</text>
</g>
<g clip-path="url(#clip9401)">
<text style="fill:#000000; fill-opacity:1; font-family:Arial,Helvetica Neue,Helvetica,sans-serif; font-size:48px; text-anchor:end;" transform="rotate(0, 219.149, 1208.45)" x="219.149" y="1208.45">0.10</text>
</g>
<g clip-path="url(#clip9401)">
<text style="fill:#000000; fill-opacity:1; font-family:Arial,Helvetica Neue,Helvetica,sans-serif; font-size:48px; text-anchor:end;" transform="rotate(0, 219.149, 716.608)" x="219.149" y="716.608">0.15</text>
</g>
<g clip-path="url(#clip9401)">
<text style="fill:#000000; fill-opacity:1; font-family:Arial,Helvetica Neue,Helvetica,sans-serif; font-size:48px; text-anchor:end;" transform="rotate(0, 219.149, 224.767)" x="219.149" y="224.767">0.20</text>
</g>
<g clip-path="url(#clip9401)">
<text style="fill:#000000; fill-opacity:1; font-family:Arial,Helvetica Neue,Helvetica,sans-serif; font-size:66px; text-anchor:middle;" transform="rotate(0, 1686.2, 2390.4)" x="1686.2" y="2390.4">Vorhersage</text>
</g>
<g clip-path="url(#clip9401)">
<text style="fill:#000000; fill-opacity:1; font-family:Arial,Helvetica Neue,Helvetica,sans-serif; font-size:66px; text-anchor:middle;" transform="rotate(-90, 57.6, 1141.77)" x="57.6" y="1141.77">Wahrscheinlichkeit</text>
</g>
<polyline clip-path="url(#clip9403)" style="stroke:#009af9; stroke-width:8; stroke-opacity:0.5; fill:none" points="
  251.149,2174.34 260.716,2174.3 270.283,2174.26 279.85,2174.22 289.417,2174.18 298.984,2174.13 308.551,2174.07 318.118,2174.01 327.685,2173.94 337.252,2173.86 
  346.819,2173.77 356.386,2173.68 365.953,2173.58 375.52,2173.47 385.087,2173.34 394.654,2173.21 404.221,2173.06 413.788,2172.89 423.355,2172.71 432.922,2172.51 
  442.489,2172.3 452.056,2172.06 461.623,2171.8 471.19,2171.52 480.757,2171.21 490.324,2170.88 499.891,2170.51 509.459,2170.11 519.026,2169.68 528.593,2169.2 
  538.16,2168.69 547.727,2168.13 557.294,2167.53 566.861,2166.87 576.428,2166.16 585.995,2165.4 595.562,2164.56 605.129,2163.67 614.696,2162.7 624.263,2161.65 
  633.83,2160.52 643.397,2159.3 652.964,2157.99 662.531,2156.58 672.098,2155.06 681.665,2153.43 691.232,2151.68 700.799,2149.81 710.366,2147.8 719.933,2145.64 
  729.5,2143.34 739.067,2140.87 748.634,2138.24 758.202,2135.43 767.769,2132.42 777.336,2129.23 786.903,2125.82 796.47,2122.19 806.037,2118.33 815.604,2114.23 
  825.171,2109.88 834.738,2105.26 844.305,2100.37 853.872,2095.18 863.439,2089.69 873.006,2083.88 882.573,2077.74 892.14,2071.26 901.707,2064.42 911.274,2057.21 
  920.841,2049.62 930.408,2041.63 939.975,2033.22 949.542,2024.39 959.109,2015.11 968.676,2005.38 978.243,1995.18 987.81,1984.5 997.377,1973.32 1006.94,1961.63 
  1016.51,1949.42 1026.08,1936.67 1035.65,1923.38 1045.21,1909.53 1054.78,1895.1 1064.35,1880.1 1073.91,1864.5 1083.48,1848.31 1093.05,1831.51 1102.61,1814.09 
  1112.18,1796.05 1121.75,1777.39 1131.32,1758.09 1140.88,1738.15 1150.45,1717.58 1160.02,1696.37 1169.58,1674.53 1179.15,1652.04 1188.72,1628.93 1198.29,1605.19 
  1207.85,1580.82 1217.42,1555.84 1226.99,1530.26 1236.55,1504.08 1246.12,1477.32 1255.69,1450 1265.25,1422.13 1274.82,1393.73 1284.39,1364.81 1293.96,1335.41 
  1303.52,1305.54 1313.09,1275.23 1322.66,1244.51 1332.22,1213.41 1341.79,1181.95 1351.36,1150.17 1360.92,1118.11 1370.49,1085.8 1380.06,1053.28 1389.63,1020.58 
  1399.19,987.756 1408.76,954.841 1418.33,921.882 1427.89,888.922 1437.46,856.009 1447.03,823.19 1456.6,790.513 1466.16,758.027 1475.73,725.782 1485.3,693.829 
  1494.86,662.219 1504.43,631.004 1514,600.235 1523.56,569.964 1533.13,540.244 1542.7,511.125 1552.27,482.66 1561.83,454.899 1571.4,427.893 1580.97,401.691 
  1590.53,376.342 1600.1,351.893 1609.67,328.39 1619.23,305.879 1628.8,284.403 1638.37,264.004 1647.94,244.722 1657.5,226.595 1667.07,209.658 1676.64,193.947 
  1686.2,179.492 1695.77,166.323 1705.34,154.466 1714.91,143.946 1724.47,134.785 1734.04,127.001 1743.61,120.609 1753.17,115.625 1762.74,112.057 1772.31,109.913 
  1781.87,109.198 1791.44,109.913 1801.01,112.057 1810.58,115.625 1820.14,120.609 1829.71,127.001 1839.28,134.785 1848.84,143.946 1858.41,154.466 1867.98,166.323 
  1877.54,179.492 1887.11,193.947 1896.68,209.658 1906.25,226.595 1915.81,244.722 1925.38,264.004 1934.95,284.403 1944.51,305.879 1954.08,328.39 1963.65,351.893 
  1973.22,376.342 1982.78,401.691 1992.35,427.893 2001.92,454.899 2011.48,482.66 2021.05,511.125 2030.62,540.244 2040.18,569.964 2049.75,600.235 2059.32,631.004 
  2068.89,662.219 2078.45,693.829 2088.02,725.782 2097.59,758.027 2107.15,790.513 2116.72,823.19 2126.29,856.009 2135.85,888.922 2145.42,921.882 2154.99,954.841 
  2164.56,987.756 2174.12,1020.58 2183.69,1053.28 2193.26,1085.8 2202.82,1118.11 2212.39,1150.17 2221.96,1181.95 2231.53,1213.41 2241.09,1244.51 2250.66,1275.23 
  2260.23,1305.54 2269.79,1335.41 2279.36,1364.81 2288.93,1393.73 2298.49,1422.13 2308.06,1450 2317.63,1477.32 2327.2,1504.08 2336.76,1530.26 2346.33,1555.84 
  2355.9,1580.82 2365.46,1605.19 2375.03,1628.93 2384.6,1652.04 2394.16,1674.53 2403.73,1696.37 2413.3,1717.58 2422.87,1738.15 2432.43,1758.09 2442,1777.39 
  2451.57,1796.05 2461.13,1814.09 2470.7,1831.51 2480.27,1848.31 2489.84,1864.5 2499.4,1880.1 2508.97,1895.1 2518.54,1909.53 2528.1,1923.38 2537.67,1936.67 
  2547.24,1949.42 2556.8,1961.63 2566.37,1973.32 2575.94,1984.5 2585.51,1995.18 2595.07,2005.38 2604.64,2015.11 2614.21,2024.39 2623.77,2033.22 2633.34,2041.63 
  2642.91,2049.62 2652.47,2057.21 2662.04,2064.42 2671.61,2071.26 2681.18,2077.74 2690.74,2083.88 2700.31,2089.69 2709.88,2095.18 2719.44,2100.37 2729.01,2105.26 
  2738.58,2109.88 2748.15,2114.23 2757.71,2118.33 2767.28,2122.19 2776.85,2125.82 2786.41,2129.23 2795.98,2132.42 2805.55,2135.43 2815.11,2138.24 2824.68,2140.87 
  2834.25,2143.34 2843.82,2145.64 2853.38,2147.8 2862.95,2149.81 2872.52,2151.68 2882.08,2153.43 2891.65,2155.06 2901.22,2156.58 2910.79,2157.99 2920.35,2159.3 
  2929.92,2160.52 2939.49,2161.65 2949.05,2162.7 2958.62,2163.67 2968.19,2164.56 2977.75,2165.4 2987.32,2166.16 2996.89,2166.87 3006.46,2167.53 3016.02,2168.13 
  3025.59,2168.69 3035.16,2169.2 3044.72,2169.68 3054.29,2170.11 3063.86,2170.51 3073.42,2170.88 3082.99,2171.21 3092.56,2171.52 3102.13,2171.8 3111.69,2172.06 
  3121.26,2172.3 
  "/>
<polyline clip-path="url(#clip9403)" style="stroke:#e26f46; stroke-width:8; stroke-opacity:0.5; fill:none" points="
  251.149,2150.97 260.716,2149.74 270.283,2148.45 279.85,2147.1 289.417,2145.69 298.984,2144.22 308.551,2142.68 318.118,2141.08 327.685,2139.41 337.252,2137.66 
  346.819,2135.85 356.386,2133.95 365.953,2131.98 375.52,2129.93 385.087,2127.79 394.654,2125.56 404.221,2123.25 413.788,2120.85 423.355,2118.35 432.922,2115.75 
  442.489,2113.05 452.056,2110.25 461.623,2107.34 471.19,2104.33 480.757,2101.2 490.324,2097.96 499.891,2094.6 509.459,2091.11 519.026,2087.51 528.593,2083.78 
  538.16,2079.92 547.727,2075.93 557.294,2071.8 566.861,2067.53 576.428,2063.12 585.995,2058.57 595.562,2053.87 605.129,2049.02 614.696,2044.02 624.263,2038.86 
  633.83,2033.54 643.397,2028.06 652.964,2022.41 662.531,2016.6 672.098,2010.62 681.665,2004.47 691.232,1998.14 700.799,1991.63 710.366,1984.95 719.933,1978.09 
  729.5,1971.04 739.067,1963.8 748.634,1956.38 758.202,1948.77 767.769,1940.97 777.336,1932.97 786.903,1924.78 796.47,1916.4 806.037,1907.82 815.604,1899.04 
  825.171,1890.07 834.738,1880.9 844.305,1871.52 853.872,1861.95 863.439,1852.18 873.006,1842.21 882.573,1832.04 892.14,1821.67 901.707,1811.11 911.274,1800.34 
  920.841,1789.39 930.408,1778.23 939.975,1766.89 949.542,1755.35 959.109,1743.62 968.676,1731.71 978.243,1719.61 987.81,1707.34 997.377,1694.88 1006.94,1682.25 
  1016.51,1669.45 1026.08,1656.48 1035.65,1643.34 1045.21,1630.05 1054.78,1616.6 1064.35,1603 1073.91,1589.26 1083.48,1575.38 1093.05,1561.36 1102.61,1547.22 
  1112.18,1532.96 1121.75,1518.58 1131.32,1504.09 1140.88,1489.5 1150.45,1474.82 1160.02,1460.05 1169.58,1445.2 1179.15,1430.28 1188.72,1415.29 1198.29,1400.25 
  1207.85,1385.17 1217.42,1370.05 1226.99,1354.9 1236.55,1339.73 1246.12,1324.55 1255.69,1309.37 1265.25,1294.2 1274.82,1279.05 1284.39,1263.94 1293.96,1248.86 
  1303.52,1233.83 1313.09,1218.86 1322.66,1203.96 1332.22,1189.15 1341.79,1174.43 1351.36,1159.81 1360.92,1145.31 1370.49,1130.93 1380.06,1116.69 1389.63,1102.6 
  1399.19,1088.66 1408.76,1074.9 1418.33,1061.31 1427.89,1047.92 1437.46,1034.73 1447.03,1021.75 1456.6,1009 1466.16,996.48 1475.73,984.207 1485.3,972.189 
  1494.86,960.437 1504.43,948.962 1514,937.772 1523.56,926.878 1533.13,916.29 1542.7,906.016 1552.27,896.066 1561.83,886.449 1571.4,877.174 1580.97,868.248 
  1590.53,859.68 1600.1,851.478 1609.67,843.649 1619.23,836.201 1628.8,829.141 1638.37,822.474 1647.94,816.208 1657.5,810.347 1667.07,804.898 1676.64,799.866 
  1686.2,795.255 1695.77,791.071 1705.34,787.315 1714.91,783.994 1724.47,781.108 1734.04,778.662 1743.61,776.657 1753.17,775.096 1762.74,773.98 1772.31,773.31 
  1781.87,773.087 1791.44,773.31 1801.01,773.98 1810.58,775.096 1820.14,776.657 1829.71,778.662 1839.28,781.108 1848.84,783.994 1858.41,787.315 1867.98,791.071 
  1877.54,795.255 1887.11,799.866 1896.68,804.898 1906.25,810.347 1915.81,816.208 1925.38,822.474 1934.95,829.141 1944.51,836.201 1954.08,843.649 1963.65,851.478 
  1973.22,859.68 1982.78,868.248 1992.35,877.174 2001.92,886.449 2011.48,896.066 2021.05,906.016 2030.62,916.29 2040.18,926.878 2049.75,937.772 2059.32,948.962 
  2068.89,960.437 2078.45,972.189 2088.02,984.207 2097.59,996.48 2107.15,1009 2116.72,1021.75 2126.29,1034.73 2135.85,1047.92 2145.42,1061.31 2154.99,1074.9 
  2164.56,1088.66 2174.12,1102.6 2183.69,1116.69 2193.26,1130.93 2202.82,1145.31 2212.39,1159.81 2221.96,1174.43 2231.53,1189.15 2241.09,1203.96 2250.66,1218.86 
  2260.23,1233.83 2269.79,1248.86 2279.36,1263.94 2288.93,1279.05 2298.49,1294.2 2308.06,1309.37 2317.63,1324.55 2327.2,1339.73 2336.76,1354.9 2346.33,1370.05 
  2355.9,1385.17 2365.46,1400.25 2375.03,1415.29 2384.6,1430.28 2394.16,1445.2 2403.73,1460.05 2413.3,1474.82 2422.87,1489.5 2432.43,1504.09 2442,1518.58 
  2451.57,1532.96 2461.13,1547.22 2470.7,1561.36 2480.27,1575.38 2489.84,1589.26 2499.4,1603 2508.97,1616.6 2518.54,1630.05 2528.1,1643.34 2537.67,1656.48 
  2547.24,1669.45 2556.8,1682.25 2566.37,1694.88 2575.94,1707.34 2585.51,1719.61 2595.07,1731.71 2604.64,1743.62 2614.21,1755.35 2623.77,1766.89 2633.34,1778.23 
  2642.91,1789.39 2652.47,1800.34 2662.04,1811.11 2671.61,1821.67 2681.18,1832.04 2690.74,1842.21 2700.31,1852.18 2709.88,1861.95 2719.44,1871.52 2729.01,1880.9 
  2738.58,1890.07 2748.15,1899.04 2757.71,1907.82 2767.28,1916.4 2776.85,1924.78 2786.41,1932.97 2795.98,1940.97 2805.55,1948.77 2815.11,1956.38 2824.68,1963.8 
  2834.25,1971.04 2843.82,1978.09 2853.38,1984.95 2862.95,1991.63 2872.52,1998.14 2882.08,2004.47 2891.65,2010.62 2901.22,2016.6 2910.79,2022.41 2920.35,2028.06 
  2929.92,2033.54 2939.49,2038.86 2949.05,2044.02 2958.62,2049.02 2968.19,2053.87 2977.75,2058.57 2987.32,2063.12 2996.89,2067.53 3006.46,2071.8 3016.02,2075.93 
  3025.59,2079.92 3035.16,2083.78 3044.72,2087.51 3054.29,2091.11 3063.86,2094.6 3073.42,2097.96 3082.99,2101.2 3092.56,2104.33 3102.13,2107.34 3111.69,2110.25 
  3121.26,2113.05 
  "/>
<polyline clip-path="url(#clip9403)" style="stroke:#3da44d; stroke-width:8; stroke-opacity:0.5; fill:none" points="
  251.149,2072.2 260.716,2069.18 270.283,2066.08 279.85,2062.91 289.417,2059.67 298.984,2056.36 308.551,2052.98 318.118,2049.52 327.685,2045.99 337.252,2042.38 
  346.819,2038.69 356.386,2034.93 365.953,2031.09 375.52,2027.17 385.087,2023.17 394.654,2019.09 404.221,2014.93 413.788,2010.69 423.355,2006.37 432.922,2001.97 
  442.489,1997.48 452.056,1992.91 461.623,1988.25 471.19,1983.52 480.757,1978.69 490.324,1973.78 499.891,1968.79 509.459,1963.71 519.026,1958.54 528.593,1953.29 
  538.16,1947.95 547.727,1942.53 557.294,1937.02 566.861,1931.42 576.428,1925.74 585.995,1919.97 595.562,1914.11 605.129,1908.17 614.696,1902.14 624.263,1896.03 
  633.83,1889.83 643.397,1883.55 652.964,1877.18 662.531,1870.73 672.098,1864.19 681.665,1857.57 691.232,1850.88 700.799,1844.09 710.366,1837.23 719.933,1830.29 
  729.5,1823.27 739.067,1816.18 748.634,1809.01 758.202,1801.76 767.769,1794.43 777.336,1787.04 786.903,1779.57 796.47,1772.03 806.037,1764.43 815.604,1756.75 
  825.171,1749.01 834.738,1741.21 844.305,1733.34 853.872,1725.41 863.439,1717.43 873.006,1709.38 882.573,1701.29 892.14,1693.13 901.707,1684.93 911.274,1676.68 
  920.841,1668.38 930.408,1660.04 939.975,1651.66 949.542,1643.23 959.109,1634.77 968.676,1626.28 978.243,1617.75 987.81,1609.19 997.377,1600.61 1006.94,1592 
  1016.51,1583.37 1026.08,1574.73 1035.65,1566.07 1045.21,1557.39 1054.78,1548.71 1064.35,1540.02 1073.91,1531.33 1083.48,1522.63 1093.05,1513.94 1102.61,1505.26 
  1112.18,1496.59 1121.75,1487.93 1131.32,1479.28 1140.88,1470.66 1150.45,1462.06 1160.02,1453.48 1169.58,1444.94 1179.15,1436.43 1188.72,1427.95 1198.29,1419.52 
  1207.85,1411.13 1217.42,1402.79 1226.99,1394.5 1236.55,1386.27 1246.12,1378.09 1255.69,1369.98 1265.25,1361.93 1274.82,1353.95 1284.39,1346.04 1293.96,1338.21 
  1303.52,1330.47 1313.09,1322.8 1322.66,1315.22 1332.22,1307.73 1341.79,1300.34 1351.36,1293.05 1360.92,1285.85 1370.49,1278.77 1380.06,1271.79 1389.63,1264.92 
  1399.19,1258.16 1408.76,1251.53 1418.33,1245.02 1427.89,1238.63 1437.46,1232.37 1447.03,1226.24 1456.6,1220.25 1466.16,1214.39 1475.73,1208.67 1485.3,1203.1 
  1494.86,1197.68 1504.43,1192.4 1514,1187.27 1523.56,1182.3 1533.13,1177.49 1542.7,1172.83 1552.27,1168.34 1561.83,1164.01 1571.4,1159.85 1580.97,1155.86 
  1590.53,1152.04 1600.1,1148.39 1609.67,1144.92 1619.23,1141.62 1628.8,1138.51 1638.37,1135.57 1647.94,1132.81 1657.5,1130.24 1667.07,1127.86 1676.64,1125.66 
  1686.2,1123.64 1695.77,1121.82 1705.34,1120.18 1714.91,1118.74 1724.47,1117.48 1734.04,1116.42 1743.61,1115.55 1753.17,1114.87 1762.74,1114.39 1772.31,1114.1 
  1781.87,1114 1791.44,1114.1 1801.01,1114.39 1810.58,1114.87 1820.14,1115.55 1829.71,1116.42 1839.28,1117.48 1848.84,1118.74 1858.41,1120.18 1867.98,1121.82 
  1877.54,1123.64 1887.11,1125.66 1896.68,1127.86 1906.25,1130.24 1915.81,1132.81 1925.38,1135.57 1934.95,1138.51 1944.51,1141.62 1954.08,1144.92 1963.65,1148.39 
  1973.22,1152.04 1982.78,1155.86 1992.35,1159.85 2001.92,1164.01 2011.48,1168.34 2021.05,1172.83 2030.62,1177.49 2040.18,1182.3 2049.75,1187.27 2059.32,1192.4 
  2068.89,1197.68 2078.45,1203.1 2088.02,1208.67 2097.59,1214.39 2107.15,1220.25 2116.72,1226.24 2126.29,1232.37 2135.85,1238.63 2145.42,1245.02 2154.99,1251.53 
  2164.56,1258.16 2174.12,1264.92 2183.69,1271.79 2193.26,1278.77 2202.82,1285.85 2212.39,1293.05 2221.96,1300.34 2231.53,1307.73 2241.09,1315.22 2250.66,1322.8 
  2260.23,1330.47 2269.79,1338.21 2279.36,1346.04 2288.93,1353.95 2298.49,1361.93 2308.06,1369.98 2317.63,1378.09 2327.2,1386.27 2336.76,1394.5 2346.33,1402.79 
  2355.9,1411.13 2365.46,1419.52 2375.03,1427.95 2384.6,1436.43 2394.16,1444.94 2403.73,1453.48 2413.3,1462.06 2422.87,1470.66 2432.43,1479.28 2442,1487.93 
  2451.57,1496.59 2461.13,1505.26 2470.7,1513.94 2480.27,1522.63 2489.84,1531.33 2499.4,1540.02 2508.97,1548.71 2518.54,1557.39 2528.1,1566.07 2537.67,1574.73 
  2547.24,1583.37 2556.8,1592 2566.37,1600.61 2575.94,1609.19 2585.51,1617.75 2595.07,1626.28 2604.64,1634.77 2614.21,1643.23 2623.77,1651.66 2633.34,1660.04 
  2642.91,1668.38 2652.47,1676.68 2662.04,1684.93 2671.61,1693.13 2681.18,1701.29 2690.74,1709.38 2700.31,1717.43 2709.88,1725.41 2719.44,1733.34 2729.01,1741.21 
  2738.58,1749.01 2748.15,1756.75 2757.71,1764.43 2767.28,1772.03 2776.85,1779.57 2786.41,1787.04 2795.98,1794.43 2805.55,1801.76 2815.11,1809.01 2824.68,1816.18 
  2834.25,1823.27 2843.82,1830.29 2853.38,1837.23 2862.95,1844.09 2872.52,1850.88 2882.08,1857.57 2891.65,1864.19 2901.22,1870.73 2910.79,1877.18 2920.35,1883.55 
  2929.92,1889.83 2939.49,1896.03 2949.05,1902.14 2958.62,1908.17 2968.19,1914.11 2977.75,1919.97 2987.32,1925.74 2996.89,1931.42 3006.46,1937.02 3016.02,1942.53 
  3025.59,1947.95 3035.16,1953.29 3044.72,1958.54 3054.29,1963.71 3063.86,1968.79 3073.42,1973.78 3082.99,1978.69 3092.56,1983.52 3102.13,1988.25 3111.69,1992.91 
  3121.26,1997.48 
  "/>
<polygon clip-path="url(#clip9401)" points="
347.149,420.684 762.164,420.684 762.164,178.764 347.149,178.764 
  " fill="#ffffff" fill-rule="evenodd" fill-opacity="1"/>
<polyline clip-path="url(#clip9401)" style="stroke:#000000; stroke-width:4; stroke-opacity:1; fill:none" points="
  347.149,420.684 762.164,420.684 762.164,178.764 347.149,178.764 347.149,420.684 
  "/>
<polyline clip-path="url(#clip9401)" style="stroke:#009af9; stroke-width:8; stroke-opacity:0.5; fill:none" points="
  379.149,239.244 571.149,239.244 
  "/>
<g clip-path="url(#clip9401)">
<text style="fill:#000000; fill-opacity:1; font-family:Arial,Helvetica Neue,Helvetica,sans-serif; font-size:48px; text-anchor:start;" transform="rotate(0, 603.149, 256.744)" x="603.149" y="256.744">t = 1</text>
</g>
<polyline clip-path="url(#clip9401)" style="stroke:#e26f46; stroke-width:8; stroke-opacity:0.5; fill:none" points="
  379.149,299.724 571.149,299.724 
  "/>
<g clip-path="url(#clip9401)">
<text style="fill:#000000; fill-opacity:1; font-family:Arial,Helvetica Neue,Helvetica,sans-serif; font-size:48px; text-anchor:start;" transform="rotate(0, 603.149, 317.224)" x="603.149" y="317.224">t = 2</text>
</g>
<polyline clip-path="url(#clip9401)" style="stroke:#3da44d; stroke-width:8; stroke-opacity:0.5; fill:none" points="
  379.149,360.204 571.149,360.204 
  "/>
<g clip-path="url(#clip9401)">
<text style="fill:#000000; fill-opacity:1; font-family:Arial,Helvetica Neue,Helvetica,sans-serif; font-size:48px; text-anchor:start;" transform="rotate(0, 603.149, 377.704)" x="603.149" y="377.704">t = 3</text>
</g>
</svg>
