<?xml version="1.0" encoding="utf-8"?>
<svg xmlns="http://www.w3.org/2000/svg" xmlns:xlink="http://www.w3.org/1999/xlink" width="800" height="600" viewBox="0 0 3200 2400">
<defs>
  <clipPath id="clip9700">
    <rect x="0" y="0" width="2000" height="2000"/>
  </clipPath>
</defs>
<defs>
  <clipPath id="clip9701">
    <rect x="0" y="0" width="3200" height="2400"/>
  </clipPath>
</defs>
<polygon clip-path="url(#clip9701)" points="
0,2400 3200,2400 3200,0 0,0 
  " fill="#ffffff" fill-rule="evenodd" fill-opacity="1"/>
<defs>
  <clipPath id="clip9702">
    <rect x="640" y="0" width="2241" height="2241"/>
  </clipPath>
</defs>
<polygon clip-path="url(#clip9701)" points="
224.386,2236.29 3121.26,2236.29 3121.26,47.2441 224.386,47.2441 
  " fill="#ffffff" fill-rule="evenodd" fill-opacity="1"/>
<defs>
  <clipPath id="clip9703">
    <rect x="224" y="47" width="2898" height="2190"/>
  </clipPath>
</defs>
<polyline clip-path="url(#clip9703)" style="stroke:#000000; stroke-width:2; stroke-opacity:0.1; fill:none" points="
  696.787,2236.29 696.787,47.2441 
  "/>
<polyline clip-path="url(#clip9703)" style="stroke:#000000; stroke-width:2; stroke-opacity:0.1; fill:none" points="
  1477.62,2236.29 1477.62,47.2441 
  "/>
<polyline clip-path="url(#clip9703)" style="stroke:#000000; stroke-width:2; stroke-opacity:0.1; fill:none" points="
  2258.44,2236.29 2258.44,47.2441 
  "/>
<polyline clip-path="url(#clip9703)" style="stroke:#000000; stroke-width:2; stroke-opacity:0.1; fill:none" points="
  3039.27,2236.29 3039.27,47.2441 
  "/>
<polyline clip-path="url(#clip9703)" style="stroke:#000000; stroke-width:2; stroke-opacity:0.1; fill:none" points="
  224.386,2174.34 3121.26,2174.34 
  "/>
<polyline clip-path="url(#clip9703)" style="stroke:#000000; stroke-width:2; stroke-opacity:0.1; fill:none" points="
  224.386,1645.12 3121.26,1645.12 
  "/>
<polyline clip-path="url(#clip9703)" style="stroke:#000000; stroke-width:2; stroke-opacity:0.1; fill:none" points="
  224.386,1115.91 3121.26,1115.91 
  "/>
<polyline clip-path="url(#clip9703)" style="stroke:#000000; stroke-width:2; stroke-opacity:0.1; fill:none" points="
  224.386,586.69 3121.26,586.69 
  "/>
<polyline clip-path="url(#clip9703)" style="stroke:#000000; stroke-width:2; stroke-opacity:0.1; fill:none" points="
  224.386,57.474 3121.26,57.474 
  "/>
<polyline clip-path="url(#clip9701)" style="stroke:#000000; stroke-width:4; stroke-opacity:1; fill:none" points="
  224.386,2236.29 3121.26,2236.29 
  "/>
<polyline clip-path="url(#clip9701)" style="stroke:#000000; stroke-width:4; stroke-opacity:1; fill:none" points="
  224.386,2236.29 224.386,47.2441 
  "/>
<polyline clip-path="url(#clip9701)" style="stroke:#000000; stroke-width:4; stroke-opacity:1; fill:none" points="
  696.787,2236.29 696.787,2203.46 
  "/>
<polyline clip-path="url(#clip9701)" style="stroke:#000000; stroke-width:4; stroke-opacity:1; fill:none" points="
  1477.62,2236.29 1477.62,2203.46 
  "/>
<polyline clip-path="url(#clip9701)" style="stroke:#000000; stroke-width:4; stroke-opacity:1; fill:none" points="
  2258.44,2236.29 2258.44,2203.46 
  "/>
<polyline clip-path="url(#clip9701)" style="stroke:#000000; stroke-width:4; stroke-opacity:1; fill:none" points="
  3039.27,2236.29 3039.27,2203.46 
  "/>
<polyline clip-path="url(#clip9701)" style="stroke:#000000; stroke-width:4; stroke-opacity:1; fill:none" points="
  224.386,2174.34 267.839,2174.34 
  "/>
<polyline clip-path="url(#clip9701)" style="stroke:#000000; stroke-width:4; stroke-opacity:1; fill:none" points="
  224.386,1645.12 267.839,1645.12 
  "/>
<polyline clip-path="url(#clip9701)" style="stroke:#000000; stroke-width:4; stroke-opacity:1; fill:none" points="
  224.386,1115.91 267.839,1115.91 
  "/>
<polyline clip-path="url(#clip9701)" style="stroke:#000000; stroke-width:4; stroke-opacity:1; fill:none" points="
  224.386,586.69 267.839,586.69 
  "/>
<polyline clip-path="url(#clip9701)" style="stroke:#000000; stroke-width:4; stroke-opacity:1; fill:none" points="
  224.386,57.474 267.839,57.474 
  "/>
<g clip-path="url(#clip9701)">
<text style="fill:#000000; fill-opacity:1; font-family:Arial,Helvetica Neue,Helvetica,sans-serif; font-size:48px; text-anchor:middle;" transform="rotate(0, 696.787, 2294.29)" x="696.787" y="2294.29">6</text>
</g>
<g clip-path="url(#clip9701)">
<text style="fill:#000000; fill-opacity:1; font-family:Arial,Helvetica Neue,Helvetica,sans-serif; font-size:48px; text-anchor:middle;" transform="rotate(0, 1477.62, 2294.29)" x="1477.62" y="2294.29">8</text>
</g>
<g clip-path="url(#clip9701)">
<text style="fill:#000000; fill-opacity:1; font-family:Arial,Helvetica Neue,Helvetica,sans-serif; font-size:48px; text-anchor:middle;" transform="rotate(0, 2258.44, 2294.29)" x="2258.44" y="2294.29">10</text>
</g>
<g clip-path="url(#clip9701)">
<text style="fill:#000000; fill-opacity:1; font-family:Arial,Helvetica Neue,Helvetica,sans-serif; font-size:48px; text-anchor:middle;" transform="rotate(0, 3039.27, 2294.29)" x="3039.27" y="2294.29">12</text>
</g>
<g clip-path="url(#clip9701)">
<text style="fill:#000000; fill-opacity:1; font-family:Arial,Helvetica Neue,Helvetica,sans-serif; font-size:48px; text-anchor:end;" transform="rotate(0, 192.386, 2191.84)" x="192.386" y="2191.84">0.0</text>
</g>
<g clip-path="url(#clip9701)">
<text style="fill:#000000; fill-opacity:1; font-family:Arial,Helvetica Neue,Helvetica,sans-serif; font-size:48px; text-anchor:end;" transform="rotate(0, 192.386, 1662.62)" x="192.386" y="1662.62">0.2</text>
</g>
<g clip-path="url(#clip9701)">
<text style="fill:#000000; fill-opacity:1; font-family:Arial,Helvetica Neue,Helvetica,sans-serif; font-size:48px; text-anchor:end;" transform="rotate(0, 192.386, 1133.41)" x="192.386" y="1133.41">0.4</text>
</g>
<g clip-path="url(#clip9701)">
<text style="fill:#000000; fill-opacity:1; font-family:Arial,Helvetica Neue,Helvetica,sans-serif; font-size:48px; text-anchor:end;" transform="rotate(0, 192.386, 604.19)" x="192.386" y="604.19">0.6</text>
</g>
<g clip-path="url(#clip9701)">
<text style="fill:#000000; fill-opacity:1; font-family:Arial,Helvetica Neue,Helvetica,sans-serif; font-size:48px; text-anchor:end;" transform="rotate(0, 192.386, 74.974)" x="192.386" y="74.974">0.8</text>
</g>
<g clip-path="url(#clip9701)">
<text style="fill:#000000; fill-opacity:1; font-family:Arial,Helvetica Neue,Helvetica,sans-serif; font-size:66px; text-anchor:middle;" transform="rotate(0, 1672.82, 2390.4)" x="1672.82" y="2390.4">Messwert/Schätzung</text>
</g>
<g clip-path="url(#clip9701)">
<text style="fill:#000000; fill-opacity:1; font-family:Arial,Helvetica Neue,Helvetica,sans-serif; font-size:66px; text-anchor:middle;" transform="rotate(-90, 57.6, 1141.77)" x="57.6" y="1141.77">Wahrscheinlichkeit</text>
</g>
<polyline clip-path="url(#clip9703)" style="stroke:#0000ff; stroke-width:8; stroke-opacity:0.5; fill:none" points="
  306.373,2162.61 325.894,2160.73 345.415,2158.59 364.935,2156.15 384.456,2153.39 403.977,2150.27 423.497,2146.76 443.018,2142.82 462.539,2138.4 482.06,2133.46 
  501.58,2127.96 521.101,2121.85 540.622,2115.08 560.142,2107.61 579.663,2099.38 599.184,2090.35 618.705,2080.47 638.225,2069.68 657.746,2057.95 677.267,2045.23 
  696.787,2031.47 716.308,2016.64 735.829,2000.71 755.35,1983.65 774.87,1965.43 794.391,1946.04 813.912,1925.48 833.432,1903.74 852.953,1880.83 872.474,1856.78 
  891.995,1831.62 911.515,1805.39 931.036,1778.15 950.557,1749.95 970.077,1720.88 989.598,1691.03 1009.12,1660.51 1028.64,1629.41 1048.16,1597.88 1067.68,1566.05 
  1087.2,1534.06 1106.72,1502.08 1126.24,1470.25 1145.76,1438.77 1165.28,1407.79 1184.81,1377.5 1204.33,1348.09 1223.85,1319.73 1243.37,1292.6 1262.89,1266.88 
  1282.41,1242.74 1301.93,1220.35 1321.45,1199.87 1340.97,1181.42 1360.49,1165.15 1380.01,1151.18 1399.53,1139.61 1419.05,1130.51 1438.57,1123.97 1458.1,1120.02 
  1477.62,1118.7 1497.14,1120.02 1516.66,1123.97 1536.18,1130.51 1555.7,1139.61 1575.22,1151.18 1594.74,1165.15 1614.26,1181.42 1633.78,1199.87 1653.3,1220.35 
  1672.82,1242.74 1692.34,1266.88 1711.86,1292.6 1731.39,1319.73 1750.91,1348.09 1770.43,1377.5 1789.95,1407.79 1809.47,1438.77 1828.99,1470.25 1848.51,1502.08 
  1868.03,1534.06 1887.55,1566.05 1907.07,1597.88 1926.59,1629.41 1946.11,1660.51 1965.63,1691.03 1985.15,1720.88 2004.68,1749.95 2024.2,1778.15 2043.72,1805.39 
  2063.24,1831.62 2082.76,1856.78 2102.28,1880.83 2121.8,1903.74 2141.32,1925.48 2160.84,1946.04 2180.36,1965.43 2199.88,1983.65 2219.4,2000.71 2238.92,2016.64 
  2258.44,2031.47 2277.97,2045.23 2297.49,2057.95 2317.01,2069.68 2336.53,2080.47 2356.05,2090.35 2375.57,2099.38 2395.09,2107.61 2414.61,2115.08 2434.13,2121.85 
  2453.65,2127.96 2473.17,2133.46 2492.69,2138.4 2512.21,2142.82 2531.73,2146.76 2551.26,2150.27 2570.78,2153.39 2590.3,2156.15 2609.82,2158.59 2629.34,2160.73 
  2648.86,2162.61 2668.38,2164.26 2687.9,2165.69 2707.42,2166.94 2726.94,2168.03 2746.46,2168.97 2765.98,2169.78 2785.5,2170.48 2805.02,2171.08 2824.55,2171.59 
  2844.07,2172.03 2863.59,2172.4 2883.11,2172.72 2902.63,2172.99 2922.15,2173.21 2941.67,2173.4 2961.19,2173.56 2980.71,2173.7 3000.23,2173.81 3019.75,2173.9 
  3039.27,2173.98 
  "/>
<polyline clip-path="url(#clip9703)" style="stroke:#0000ff; stroke-width:8; stroke-opacity:0.5; fill:none" stroke-dasharray="32, 20" points="
  306.373,2174.34 325.894,2174.34 345.415,2174.34 364.935,2174.34 384.456,2174.34 403.977,2174.34 423.497,2174.34 443.018,2174.34 462.539,2174.34 482.06,2174.34 
  501.58,2174.34 521.101,2174.34 540.622,2174.34 560.142,2174.33 579.663,2174.33 599.184,2174.33 618.705,2174.33 638.225,2174.33 657.746,2174.32 677.267,2174.31 
  696.787,2174.3 716.308,2174.29 735.829,2174.27 755.35,2174.25 774.87,2174.21 794.391,2174.16 813.912,2174.1 833.432,2174.01 852.953,2173.89 872.474,2173.72 
  891.995,2173.51 911.515,2173.23 931.036,2172.86 950.557,2172.38 970.077,2171.76 989.598,2170.97 1009.12,2169.95 1028.64,2168.66 1048.16,2167.03 1067.68,2164.98 
  1087.2,2162.43 1106.72,2159.27 1126.24,2155.39 1145.76,2150.64 1165.28,2144.88 1184.81,2137.92 1204.33,2129.57 1223.85,2119.64 1243.37,2107.88 1262.89,2094.06 
  1282.41,2077.92 1301.93,2059.21 1321.45,2037.66 1340.97,2013 1360.49,1985 1380.01,1953.42 1399.53,1918.05 1419.05,1878.74 1438.57,1835.36 1458.1,1787.86 
  1477.62,1736.23 1497.14,1680.57 1516.66,1621.05 1536.18,1557.92 1555.7,1491.54 1575.22,1422.38 1594.74,1350.98 1614.26,1278 1633.78,1204.16 1653.3,1130.3 
  1672.82,1057.28 1692.34,986.05 1711.86,917.556 1731.39,852.771 1750.91,792.654 1770.43,738.124 1789.95,690.043 1809.47,649.191 1828.99,616.243 1848.51,591.754 
  1868.03,576.142 1887.55,569.674 1907.07,572.462 1926.59,584.458 1946.11,605.456 1965.63,635.096 1985.15,672.877 2004.68,718.169 2024.2,770.231 2043.72,828.232 
  2063.24,891.272 2082.76,958.406 2102.28,1028.67 2121.8,1101.09 2141.32,1174.72 2160.84,1248.67 2180.36,1322.08 2199.88,1394.19 2219.4,1464.32 2238.92,1531.87 
  2258.44,1596.33 2277.97,1657.33 2297.49,1714.55 2317.01,1767.8 2336.53,1816.95 2356.05,1861.97 2375.57,1902.89 2395.09,1939.81 2414.61,1972.87 2434.13,2002.27 
  2453.65,2028.23 2473.17,2050.98 2492.69,2070.8 2512.21,2087.93 2531.73,2102.64 2551.26,2115.19 2570.78,2125.82 2590.3,2134.77 2609.82,2142.26 2629.34,2148.48 
  2648.86,2153.61 2668.38,2157.82 2687.9,2161.25 2707.42,2164.03 2726.94,2166.27 2746.46,2168.05 2765.98,2169.47 2785.5,2170.59 2805.02,2171.47 2824.55,2172.16 
  2844.07,2172.69 2863.59,2173.1 2883.11,2173.41 2902.63,2173.65 2922.15,2173.83 2941.67,2173.96 2961.19,2174.06 2980.71,2174.14 3000.23,2174.19 3019.75,2174.23 
  3039.27,2174.26 
  "/>
<polyline clip-path="url(#clip9703)" style="stroke:#008000; stroke-width:8; stroke-opacity:0.5; fill:none" points="
  306.373,2151.64 325.894,2149.67 345.415,2147.56 364.935,2145.3 384.456,2142.88 403.977,2140.29 423.497,2137.53 443.018,2134.58 462.539,2131.45 482.06,2128.11 
  501.58,2124.57 521.101,2120.81 540.622,2116.82 560.142,2112.6 579.663,2108.15 599.184,2103.44 618.705,2098.47 638.225,2093.24 657.746,2087.74 677.267,2081.96 
  696.787,2075.9 716.308,2069.55 735.829,2062.9 755.35,2055.96 774.87,2048.71 794.391,2041.15 813.912,2033.28 833.432,2025.11 852.953,2016.62 872.474,2007.82 
  891.995,1998.71 911.515,1989.29 931.036,1979.57 950.557,1969.55 970.077,1959.24 989.598,1948.64 1009.12,1937.76 1028.64,1926.61 1048.16,1915.2 1067.68,1903.54 
  1087.2,1891.66 1106.72,1879.55 1126.24,1867.25 1145.76,1854.76 1165.28,1842.1 1184.81,1829.3 1204.33,1816.37 1223.85,1803.35 1243.37,1790.24 1262.89,1777.08 
  1282.41,1763.89 1301.93,1750.7 1321.45,1737.54 1340.97,1724.44 1360.49,1711.41 1380.01,1698.5 1399.53,1685.74 1419.05,1673.14 1438.57,1660.76 1458.1,1648.6 
  1477.62,1636.72 1497.14,1625.13 1516.66,1613.87 1536.18,1602.97 1555.7,1592.46 1575.22,1582.36 1594.74,1572.71 1614.26,1563.53 1633.78,1554.85 1653.3,1546.69 
  1672.82,1539.08 1692.34,1532.04 1711.86,1525.59 1731.39,1519.75 1750.91,1514.54 1770.43,1509.97 1789.95,1506.05 1809.47,1502.81 1828.99,1500.25 1848.51,1498.37 
  1868.03,1497.19 1887.55,1496.7 1907.07,1496.91 1926.59,1497.82 1946.11,1499.42 1965.63,1501.71 1985.15,1504.68 2004.68,1508.33 2024.2,1512.64 2043.72,1517.6 
  2063.24,1523.19 2082.76,1529.4 2102.28,1536.21 2121.8,1543.59 2141.32,1551.54 2160.84,1560.01 2180.36,1569 2199.88,1578.46 2219.4,1588.39 2238.92,1598.74 
  2258.44,1609.49 2277.97,1620.61 2297.49,1632.07 2317.01,1643.84 2336.53,1655.89 2356.05,1668.19 2375.57,1680.7 2395.09,1693.4 2414.61,1706.26 2434.13,1719.24 
  2453.65,1732.32 2473.17,1745.46 2492.69,1758.64 2512.21,1771.83 2531.73,1785.01 2551.26,1798.14 2570.78,1811.2 2590.3,1824.17 2609.82,1837.02 2629.34,1849.74 
  2648.86,1862.3 2668.38,1874.68 2687.9,1886.87 2707.42,1898.84 2726.94,1910.59 2746.46,1922.1 2765.98,1933.35 2785.5,1944.34 2805.02,1955.05 2824.55,1965.48 
  2844.07,1975.62 2863.59,1985.46 2883.11,1995 2902.63,2004.23 2922.15,2013.15 2941.67,2021.77 2961.19,2030.07 2980.71,2038.06 3000.23,2045.74 3019.75,2053.11 
  3039.27,2060.17 
  "/>
<polyline clip-path="url(#clip9703)" style="stroke:#008000; stroke-width:8; stroke-opacity:0.5; fill:none" stroke-dasharray="32, 20" points="
  306.373,2174.34 325.894,2174.34 345.415,2174.34 364.935,2174.34 384.456,2174.34 403.977,2174.34 423.497,2174.34 443.018,2174.34 462.539,2174.34 482.06,2174.34 
  501.58,2174.34 521.101,2174.34 540.622,2174.34 560.142,2174.34 579.663,2174.34 599.184,2174.34 618.705,2174.34 638.225,2174.34 657.746,2174.34 677.267,2174.34 
  696.787,2174.34 716.308,2174.34 735.829,2174.34 755.35,2174.34 774.87,2174.34 794.391,2174.34 813.912,2174.34 833.432,2174.34 852.953,2174.34 872.474,2174.34 
  891.995,2174.34 911.515,2174.34 931.036,2174.34 950.557,2174.34 970.077,2174.34 989.598,2174.34 1009.12,2174.34 1028.64,2174.34 1048.16,2174.33 1067.68,2174.33 
  1087.2,2174.33 1106.72,2174.33 1126.24,2174.32 1145.76,2174.32 1165.28,2174.3 1184.81,2174.29 1204.33,2174.26 1223.85,2174.22 1243.37,2174.16 1262.89,2174.07 
  1282.41,2173.94 1301.93,2173.75 1321.45,2173.49 1340.97,2173.11 1360.49,2172.58 1380.01,2171.84 1399.53,2170.82 1419.05,2169.44 1438.57,2167.57 1458.1,2165.06 
  1477.62,2161.75 1497.14,2157.4 1516.66,2151.76 1536.18,2144.5 1555.7,2135.25 1575.22,2123.61 1594.74,2109.07 1614.26,2091.12 1633.78,2069.18 1653.3,2042.64 
  1672.82,2010.87 1692.34,1973.24 1711.86,1929.15 1731.39,1878.06 1750.91,1819.51 1770.43,1753.18 1789.95,1678.91 1809.47,1596.72 1828.99,1506.9 1848.51,1409.99 
  1868.03,1306.8 1887.55,1198.45 1907.07,1086.35 1926.59,972.177 1946.11,857.857 1965.63,745.51 1985.15,637.391 2004.68,535.818 2024.2,443.094 2043.72,361.419 
  2063.24,292.803 2082.76,238.987 2102.28,201.366 2121.8,180.932 2141.32,178.229 2160.84,193.328 2180.36,225.829 2199.88,274.87 2219.4,339.172 2238.92,417.093 
  2258.44,506.696 2277.97,605.829 2297.49,712.211 2317.01,823.52 2336.53,937.474 2356.05,1051.9 2375.57,1164.82 2395.09,1274.47 2414.61,1379.35 2434.13,1478.27 
  2453.65,1570.3 2473.17,1654.84 2492.69,1731.53 2512.21,1800.26 2531.73,1861.13 2551.26,1914.44 2570.78,1960.59 2590.3,2000.12 2609.82,2033.6 2629.34,2061.66 
  2648.86,2084.93 2668.38,2104.02 2687.9,2119.53 2707.42,2132 2726.94,2141.93 2746.46,2149.74 2765.98,2155.84 2785.5,2160.55 2805.02,2164.15 2824.55,2166.88 
  2844.07,2168.93 2863.59,2170.45 2883.11,2171.56 2902.63,2172.38 2922.15,2172.97 2941.67,2173.39 2961.19,2173.68 2980.71,2173.89 3000.23,2174.04 3019.75,2174.14 
  3039.27,2174.2 
  "/>
<polyline clip-path="url(#clip9703)" style="stroke:#ff0000; stroke-width:8; stroke-opacity:0.5; fill:none" points="
  306.373,2170.9 325.894,2170.49 345.415,2170.03 364.935,2169.52 384.456,2168.96 403.977,2168.34 423.497,2167.65 443.018,2166.9 462.539,2166.07 482.06,2165.17 
  501.58,2164.17 521.101,2163.08 540.622,2161.89 560.142,2160.59 579.663,2159.17 599.184,2157.62 618.705,2155.94 638.225,2154.12 657.746,2152.14 677.267,2150 
  696.787,2147.69 716.308,2145.19 735.829,2142.5 755.35,2139.6 774.87,2136.48 794.391,2133.14 813.912,2129.55 833.432,2125.71 852.953,2121.6 872.474,2117.22 
  891.995,2112.55 911.515,2107.58 931.036,2102.3 950.557,2096.7 970.077,2090.76 989.598,2084.48 1009.12,2077.85 1028.64,2070.85 1048.16,2063.48 1067.68,2055.73 
  1087.2,2047.6 1106.72,2039.07 1126.24,2030.15 1145.76,2020.82 1165.28,2011.1 1184.81,2000.97 1204.33,1990.43 1223.85,1979.5 1243.37,1968.16 1262.89,1956.44 
  1282.41,1944.33 1301.93,1931.84 1321.45,1918.99 1340.97,1905.79 1360.49,1892.25 1380.01,1878.39 1399.53,1864.23 1419.05,1849.79 1438.57,1835.1 1458.1,1820.17 
  1477.62,1805.04 1497.14,1789.73 1516.66,1774.28 1536.18,1758.72 1555.7,1743.08 1575.22,1727.4 1594.74,1711.72 1614.26,1696.07 1633.78,1680.5 1653.3,1665.05 
  1672.82,1649.76 1692.34,1634.67 1711.86,1619.82 1731.39,1605.27 1750.91,1591.04 1770.43,1577.2 1789.95,1563.77 1809.47,1550.81 1828.99,1538.35 1848.51,1526.43 
  1868.03,1515.1 1887.55,1504.39 1907.07,1494.35 1926.59,1484.99 1946.11,1476.37 1965.63,1468.5 1985.15,1461.42 2004.68,1455.14 2024.2,1449.7 2043.72,1445.12 
  2063.24,1441.4 2082.76,1438.56 2102.28,1436.62 2121.8,1435.58 2141.32,1435.44 2160.84,1436.21 2180.36,1437.88 2199.88,1440.44 2219.4,1443.9 2238.92,1448.22 
  2258.44,1453.41 2277.97,1459.43 2297.49,1466.27 2317.01,1473.9 2336.53,1482.3 2356.05,1491.44 2375.57,1501.28 2395.09,1511.79 2414.61,1522.94 2434.13,1534.68 
  2453.65,1546.98 2473.17,1559.79 2492.69,1573.08 2512.21,1586.81 2531.73,1600.92 2551.26,1615.38 2570.78,1630.14 2590.3,1645.16 2609.82,1660.4 2629.34,1675.81 
  2648.86,1691.35 2668.38,1706.97 2687.9,1722.65 2707.42,1738.33 2726.94,1753.99 2746.46,1769.58 2765.98,1785.06 2785.5,1800.42 2805.02,1815.61 2824.55,1830.6 
  2844.07,1845.37 2863.59,1859.89 2883.11,1874.13 2902.63,1888.08 2922.15,1901.72 2941.67,1915.03 2961.19,1927.99 2980.71,1940.58 3000.23,1952.81 3019.75,1964.65 
  3039.27,1976.1 
  "/>
<polyline clip-path="url(#clip9703)" style="stroke:#ff0000; stroke-width:8; stroke-opacity:0.5; fill:none" stroke-dasharray="32, 20" points="
  306.373,2174.34 325.894,2174.34 345.415,2174.34 364.935,2174.34 384.456,2174.34 403.977,2174.34 423.497,2174.34 443.018,2174.34 462.539,2174.34 482.06,2174.34 
  501.58,2174.34 521.101,2174.34 540.622,2174.34 560.142,2174.34 579.663,2174.34 599.184,2174.34 618.705,2174.34 638.225,2174.34 657.746,2174.34 677.267,2174.34 
  696.787,2174.34 716.308,2174.34 735.829,2174.34 755.35,2174.34 774.87,2174.34 794.391,2174.34 813.912,2174.34 833.432,2174.34 852.953,2174.34 872.474,2174.34 
  891.995,2174.34 911.515,2174.34 931.036,2174.34 950.557,2174.34 970.077,2174.34 989.598,2174.34 1009.12,2174.34 1028.64,2174.34 1048.16,2174.33 1067.68,2174.33 
  1087.2,2174.33 1106.72,2174.33 1126.24,2174.32 1145.76,2174.32 1165.28,2174.3 1184.81,2174.28 1204.33,2174.25 1223.85,2174.21 1243.37,2174.14 1262.89,2174.04 
  1282.41,2173.89 1301.93,2173.68 1321.45,2173.36 1340.97,2172.92 1360.49,2172.29 1380.01,2171.41 1399.53,2170.19 1419.05,2168.52 1438.57,2166.25 1458.1,2163.21 
  1477.62,2159.16 1497.14,2153.83 1516.66,2146.9 1536.18,2137.96 1555.7,2126.58 1575.22,2112.23 1594.74,2094.34 1614.26,2072.25 1633.78,2045.31 1653.3,2012.8 
  1672.82,1974.01 1692.34,1928.26 1711.86,1874.91 1731.39,1813.45 1750.91,1743.49 1770.43,1664.83 1789.95,1577.51 1809.47,1481.85 1828.99,1378.45 1848.51,1268.26 
  1868.03,1152.58 1887.55,1033.03 1907.07,911.561 1926.59,790.379 1946.11,671.918 1965.63,558.749 1985.15,453.492 2004.68,358.72 2024.2,276.852 2043.72,210.056 
  2063.24,160.146 2082.76,128.51 2102.28,116.036 2121.8,123.08 2141.32,149.44 2160.84,194.374 2180.36,256.628 2199.88,334.498 2219.4,425.906 2238.92,528.494 
  2258.44,639.72 2277.97,756.968 2297.49,877.643 2317.01,999.268 2336.53,1119.56 2356.05,1236.5 2375.57,1348.36 2395.09,1453.76 2414.61,1551.66 2434.13,1641.35 
  2453.65,1722.43 2473.17,1794.81 2492.69,1858.61 2512.21,1914.17 2531.73,1961.98 2551.26,2002.65 2570.78,2036.84 2590.3,2065.26 2609.82,2088.63 2629.34,2107.63 
  2648.86,2122.9 2668.38,2135.06 2687.9,2144.62 2707.42,2152.07 2726.94,2157.81 2746.46,2162.19 2765.98,2165.49 2785.5,2167.96 2805.02,2169.78 2824.55,2171.11 
  2844.07,2172.07 2863.59,2172.77 2883.11,2173.26 2902.63,2173.6 2922.15,2173.84 2941.67,2174 2961.19,2174.12 2980.71,2174.19 3000.23,2174.24 3019.75,2174.28 
  3039.27,2174.3 
  "/>
<polyline clip-path="url(#clip9703)" style="stroke:#000000; stroke-width:8; stroke-opacity:0.5; fill:none" points="
  306.373,2170.67 325.894,2170.22 345.415,2169.73 364.935,2169.18 384.456,2168.57 403.977,2167.91 423.497,2167.17 443.018,2166.36 462.539,2165.46 482.06,2164.48 
  501.58,2163.41 521.101,2162.23 540.622,2160.95 560.142,2159.54 579.663,2158.01 599.184,2156.35 618.705,2154.53 638.225,2152.56 657.746,2150.43 677.267,2148.12 
  696.787,2145.62 716.308,2142.93 735.829,2140.02 755.35,2136.9 774.87,2133.54 794.391,2129.93 813.912,2126.06 833.432,2121.93 852.953,2117.51 872.474,2112.79 
  891.995,2107.77 911.515,2102.43 931.036,2096.75 950.557,2090.73 970.077,2084.36 989.598,2077.63 1009.12,2070.52 1028.64,2063.03 1048.16,2055.14 1067.68,2046.86 
  1087.2,2038.17 1106.72,2029.07 1126.24,2019.56 1145.76,2009.63 1165.28,1999.29 1184.81,1988.52 1204.33,1977.35 1223.85,1965.76 1243.37,1953.76 1262.89,1941.37 
  1282.41,1928.59 1301.93,1915.44 1321.45,1901.92 1340.97,1888.05 1360.49,1873.86 1380.01,1859.35 1399.53,1844.56 1419.05,1829.51 1438.57,1814.22 1458.1,1798.72 
  1477.62,1783.05 1497.14,1767.23 1516.66,1751.31 1536.18,1735.31 1555.7,1719.27 1575.22,1703.24 1594.74,1687.26 1614.26,1671.36 1633.78,1655.6 1653.3,1640.01 
  1672.82,1624.65 1692.34,1609.54 1711.86,1594.75 1731.39,1580.32 1750.91,1566.29 1770.43,1552.71 1789.95,1539.62 1809.47,1527.06 1828.99,1515.08 1848.51,1503.72 
  1868.03,1493.02 1887.55,1483.02 1907.07,1473.74 1926.59,1465.23 1946.11,1457.52 1965.63,1450.63 1985.15,1444.59 2004.68,1439.41 2024.2,1435.13 2043.72,1431.75 
  2063.24,1429.29 2082.76,1427.76 2102.28,1427.16 2121.8,1427.5 2141.32,1428.77 2160.84,1430.97 2180.36,1434.1 2199.88,1438.13 2219.4,1443.05 2238.92,1448.86 
  2258.44,1455.51 2277.97,1463 2297.49,1471.29 2317.01,1480.36 2336.53,1490.16 2356.05,1500.67 2375.57,1511.85 2395.09,1523.66 2414.61,1536.06 2434.13,1549 
  2453.65,1562.45 2473.17,1576.37 2492.69,1590.69 2512.21,1605.39 2531.73,1620.41 2551.26,1635.7 2570.78,1651.24 2590.3,1666.95 2609.82,1682.82 2629.34,1698.78 
  2648.86,1714.8 2668.38,1730.84 2687.9,1746.85 2707.42,1762.8 2726.94,1778.65 2746.46,1794.37 2765.98,1809.92 2785.5,1825.27 2805.02,1840.39 2824.55,1855.26 
  2844.07,1869.84 2863.59,1884.13 2883.11,1898.09 2902.63,1911.7 2922.15,1924.96 2941.67,1937.85 2961.19,1950.35 2980.71,1962.45 3000.23,1974.16 3019.75,1985.45 
  3039.27,1996.33 
  "/>
<polyline clip-path="url(#clip9703)" style="stroke:#000000; stroke-width:8; stroke-opacity:0.5; fill:none" stroke-dasharray="32, 20" points="
  306.373,2174.34 325.894,2174.34 345.415,2174.34 364.935,2174.34 384.456,2174.34 403.977,2174.34 423.497,2174.34 443.018,2174.34 462.539,2174.34 482.06,2174.34 
  501.58,2174.34 521.101,2174.34 540.622,2174.34 560.142,2174.34 579.663,2174.34 599.184,2174.34 618.705,2174.34 638.225,2174.34 657.746,2174.34 677.267,2174.34 
  696.787,2174.34 716.308,2174.34 735.829,2174.34 755.35,2174.34 774.87,2174.34 794.391,2174.34 813.912,2174.34 833.432,2174.34 852.953,2174.34 872.474,2174.34 
  891.995,2174.34 911.515,2174.34 931.036,2174.34 950.557,2174.34 970.077,2174.34 989.598,2174.34 1009.12,2174.34 1028.64,2174.34 1048.16,2174.34 1067.68,2174.34 
  1087.2,2174.34 1106.72,2174.33 1126.24,2174.33 1145.76,2174.33 1165.28,2174.33 1184.81,2174.32 1204.33,2174.31 1223.85,2174.3 1243.37,2174.27 1262.89,2174.24 
  1282.41,2174.19 1301.93,2174.11 1321.45,2173.99 1340.97,2173.82 1360.49,2173.57 1380.01,2173.21 1399.53,2172.7 1419.05,2171.97 1438.57,2170.96 1458.1,2169.57 
  1477.62,2167.67 1497.14,2165.09 1516.66,2161.63 1536.18,2157.06 1555.7,2151.06 1575.22,2143.28 1594.74,2133.29 1614.26,2120.61 1633.78,2104.68 1653.3,2084.88 
  1672.82,2060.56 1692.34,2031 1711.86,1995.49 1731.39,1953.3 1750.91,1903.77 1770.43,1846.3 1789.95,1780.42 1809.47,1705.81 1828.99,1622.39 1848.51,1530.32 
  1868.03,1430.05 1887.55,1322.38 1907.07,1208.43 1926.59,1089.69 1946.11,967.957 1965.63,845.363 1985.15,724.274 2004.68,607.24 2024.2,496.911 2043.72,395.939 
  2063.24,306.869 2082.76,232.04 2102.28,173.478 2121.8,132.807 2141.32,111.175 2160.84,109.198 2180.36,126.933 2199.88,163.873 2219.4,218.974 2238.92,290.702 
  2258.44,377.103 2277.97,475.894 2297.49,584.563 2317.01,700.47 2336.53,820.957 2356.05,943.446 2375.57,1065.53 2395.09,1185.02 2414.61,1300.06 2434.13,1409.09 
  2453.65,1510.91 2473.17,1604.67 2492.69,1689.84 2512.21,1766.21 2531.73,1833.82 2551.26,1892.93 2570.78,1944.01 2590.3,1987.61 2609.82,2024.4 2629.34,2055.09 
  2648.86,2080.4 2668.38,2101.05 2687.9,2117.7 2707.42,2130.99 2726.94,2141.47 2746.46,2149.66 2765.98,2155.99 2785.5,2160.82 2805.02,2164.47 2824.55,2167.21 
  2844.07,2169.24 2863.59,2170.72 2883.11,2171.8 2902.63,2172.57 2922.15,2173.12 2941.67,2173.51 2961.19,2173.78 2980.71,2173.96 3000.23,2174.09 3019.75,2174.17 
  3039.27,2174.23 
  "/>
<polygon clip-path="url(#clip9701)" points="
320.386,723.084 917.299,723.084 917.299,178.764 320.386,178.764 
  " fill="#ffffff" fill-rule="evenodd" fill-opacity="1"/>
<polyline clip-path="url(#clip9701)" style="stroke:#000000; stroke-width:4; stroke-opacity:1; fill:none" points="
  320.386,723.084 917.299,723.084 917.299,178.764 320.386,178.764 320.386,723.084 
  "/>
<polyline clip-path="url(#clip9701)" style="stroke:#0000ff; stroke-width:8; stroke-opacity:0.5; fill:none" points="
  352.386,239.244 544.386,239.244 
  "/>
<g clip-path="url(#clip9701)">
<text style="fill:#000000; fill-opacity:1; font-family:Arial,Helvetica Neue,Helvetica,sans-serif; font-size:48px; text-anchor:start;" transform="rotate(0, 576.386, 256.744)" x="576.386" y="256.744">t = 0</text>
</g>
<polyline clip-path="url(#clip9701)" style="stroke:#0000ff; stroke-width:8; stroke-opacity:0.5; fill:none" stroke-dasharray="32, 20" points="
  352.386,299.724 544.386,299.724 
  "/>
<g clip-path="url(#clip9701)">
<text style="fill:#000000; fill-opacity:1; font-family:Arial,Helvetica Neue,Helvetica,sans-serif; font-size:48px; text-anchor:start;" transform="rotate(0, 576.386, 317.224)" x="576.386" y="317.224">t = 0 Gefiltert</text>
</g>
<polyline clip-path="url(#clip9701)" style="stroke:#008000; stroke-width:8; stroke-opacity:0.5; fill:none" points="
  352.386,360.204 544.386,360.204 
  "/>
<g clip-path="url(#clip9701)">
<text style="fill:#000000; fill-opacity:1; font-family:Arial,Helvetica Neue,Helvetica,sans-serif; font-size:48px; text-anchor:start;" transform="rotate(0, 576.386, 377.704)" x="576.386" y="377.704">t = 1</text>
</g>
<polyline clip-path="url(#clip9701)" style="stroke:#008000; stroke-width:8; stroke-opacity:0.5; fill:none" stroke-dasharray="32, 20" points="
  352.386,420.684 544.386,420.684 
  "/>
<g clip-path="url(#clip9701)">
<text style="fill:#000000; fill-opacity:1; font-family:Arial,Helvetica Neue,Helvetica,sans-serif; font-size:48px; text-anchor:start;" transform="rotate(0, 576.386, 438.184)" x="576.386" y="438.184">t = 1 Gefiltert</text>
</g>
<polyline clip-path="url(#clip9701)" style="stroke:#ff0000; stroke-width:8; stroke-opacity:0.5; fill:none" points="
  352.386,481.164 544.386,481.164 
  "/>
<g clip-path="url(#clip9701)">
<text style="fill:#000000; fill-opacity:1; font-family:Arial,Helvetica Neue,Helvetica,sans-serif; font-size:48px; text-anchor:start;" transform="rotate(0, 576.386, 498.664)" x="576.386" y="498.664">t = 2</text>
</g>
<polyline clip-path="url(#clip9701)" style="stroke:#ff0000; stroke-width:8; stroke-opacity:0.5; fill:none" stroke-dasharray="32, 20" points="
  352.386,541.644 544.386,541.644 
  "/>
<g clip-path="url(#clip9701)">
<text style="fill:#000000; fill-opacity:1; font-family:Arial,Helvetica Neue,Helvetica,sans-serif; font-size:48px; text-anchor:start;" transform="rotate(0, 576.386, 559.144)" x="576.386" y="559.144">t = 2 Gefiltert</text>
</g>
<polyline clip-path="url(#clip9701)" style="stroke:#000000; stroke-width:8; stroke-opacity:0.5; fill:none" points="
  352.386,602.124 544.386,602.124 
  "/>
<g clip-path="url(#clip9701)">
<text style="fill:#000000; fill-opacity:1; font-family:Arial,Helvetica Neue,Helvetica,sans-serif; font-size:48px; text-anchor:start;" transform="rotate(0, 576.386, 619.624)" x="576.386" y="619.624">t = 3</text>
</g>
<polyline clip-path="url(#clip9701)" style="stroke:#000000; stroke-width:8; stroke-opacity:0.5; fill:none" stroke-dasharray="32, 20" points="
  352.386,662.604 544.386,662.604 
  "/>
<g clip-path="url(#clip9701)">
<text style="fill:#000000; fill-opacity:1; font-family:Arial,Helvetica Neue,Helvetica,sans-serif; font-size:48px; text-anchor:start;" transform="rotate(0, 576.386, 680.104)" x="576.386" y="680.104">t = 3 Gefiltert</text>
</g>
</svg>
